<svg version="1.1" xmlns="http://www.w3.org/2000/svg" xmlns:xlink="http://www.w3.org/1999/xlink" x="0px" y="0px" viewBox="0 0 512 512" style="enable-background:new 0 0 512 512" xml:space="preserve"><defs><linearGradient id="electives-linear" x1="0%" y1="0%" x2="100%" y2="100%"><stop offset="0%" stop-color="#00505f"></stop><stop offset="100%" stop-color="#01d9ff"></stop></linearGradient></defs><g fill="url(#electives-linear)"><path d="M256,0C148.477,0,61,87.477,61,195c0,68.893,35.912,129.557,90,164.254V497c0,5.532,3.045,10.615,7.922,13.225
			c4.878,2.611,10.796,2.324,15.398-0.744L256,455.028l81.68,54.453c4.6,3.067,10.518,3.356,15.398,0.744
			c4.877-2.61,7.922-7.693,7.922-13.225V359.254c54.088-34.697,90-95.361,90-164.254C451,87.477,363.523,0,256,0z M331,468.972
			l-66.68-44.453c-5.038-3.359-11.603-3.359-16.641,0L181,468.972v-93.981C204.1,384.653,229.436,390,256,390
			c26.564,0,51.9-5.347,75-15.009V468.972z M256,360c-90.981,0-165-74.019-165-165S165.019,30,256,30s165,74.019,165,165
			S346.982,360,256,360z"></path><path d="M375.286,159.909c-1.754-5.477-6.484-9.469-12.179-10.277l-64.804-9.194l-28.916-57.205C266.835,78.184,261.658,75,256,75
			c-5.658,0-10.834,3.184-13.387,8.233l-28.916,57.205l-64.804,9.194c-5.694,0.808-10.425,4.8-12.179,10.277
			c-1.754,5.477-0.221,11.475,3.945,15.44l46.676,44.422l-11.002,62.633c-0.985,5.608,1.29,11.291,5.874,14.669
			c4.583,3.379,10.684,3.871,15.75,1.271L256,268.551l58.043,29.794c5.076,2.605,11.176,2.102,15.75-1.271
			c4.583-3.378,6.858-9.061,5.874-14.669l-11.002-62.633l46.676-44.422C375.507,171.384,377.04,165.387,375.286,159.909z
			M298.159,203.583c-3.638,3.462-5.302,8.515-4.433,13.461l7.173,40.833l-38.049-19.531c-4.301-2.207-9.4-2.207-13.7,0
			l-38.049,19.531l7.173-40.833c0.869-4.946-0.795-9.999-4.433-13.461l-30.052-28.601l41.871-5.94
			c4.855-0.689,9.068-3.708,11.28-8.084L256,123.25l19.06,37.707c2.212,4.377,6.424,7.396,11.28,8.084l41.871,5.94L298.159,203.583z
			"></path></g></svg>